<?xml version="1.0" standalone="no"?><!DOCTYPE svg PUBLIC "-//W3C//DTD SVG 1.1//EN" "http://www.w3.org/Graphics/SVG/1.1/DTD/svg11.dtd"><svg t="1574751577128" class="icon" viewBox="0 0 1068 1024" version="1.1" xmlns="http://www.w3.org/2000/svg" p-id="2036" xmlns:xlink="http://www.w3.org/1999/xlink" width="208.59375" height="200"><defs><style type="text/css"></style></defs><path d="M834.084316 554.731796l0 340.447776L100.813363 895.179572 100.813363 161.907596l0 0L441.261139 161.907596 441.261139 109.533219 100.813363 109.533219C71.886641 109.533219 48.437962 132.980875 48.437962 161.907596l0 733.270953c0 28.926721 23.448679 52.375401 52.375401 52.375401L834.084316 947.55395c28.925698 0 52.375401-23.448679 52.375401-52.375401L886.459716 554.731796 834.084316 554.731796 834.084316 554.731796zM559.493754 406.738733 179.624535 406.738733 179.624535 339.225319l379.869219 0L559.493754 406.738733zM713.592967 596.055976 178.09007 596.055976l0-67.513415 535.502897 0L713.592967 596.055976zM744.280232 789.389427 179.624535 789.389427l0-67.513415 564.655696 0L744.280232 789.389427z" p-id="2037" fill="#e6e6e6"></path><path d="M936.621395 244.460819l-19.950098 0c-8.265654 0-17.012108-6.447824-19.469299-14.333954l-10.347413-25.129431c-3.885267-7.269275-2.283285-17.996212 3.526202-23.834342l14.158002-14.132428c2.358985-2.3641 3.829003-5.633534 3.829003-9.242597 0-3.611109-1.448535-6.876452-3.829003-9.250781l-24.025638-23.984719c-2.358985-2.361031-5.61819-3.820819-9.219069-3.820819s-6.878498 1.467972-9.240551 3.820819l-14.15391 14.15391c-5.810509 5.830969-16.57632 7.430905-23.854801 3.524156l-25.108971-10.334114c-7.851349-2.438777-14.328839-11.201598-14.328839-19.461115L784.607009 92.460755c0-3.334905-1.273606-6.68004-3.826957-9.229299C778.225678 80.677083 774.890773 79.399385 771.555868 79.399385l-33.929079 0c-3.351273 0-6.686178 1.277698-9.239528 3.832072-2.550282 2.550282-3.831049 5.895417-3.831049 9.229299l0 19.974649c0 8.259516-6.417135 17.022338-14.305311 19.461115L685.120448 142.230633c-7.295872 3.906749-18.004396 2.324204-23.812859-3.524156L647.094346 124.561774c-2.363077-2.3641-5.639672-3.809566-9.240551-3.809566-3.599856 0-6.859061 1.466949-9.223161 3.819796l-23.96426 23.96426c-2.3641 2.363077-3.813658 5.623305-3.830026 9.230322 0 3.601902 1.466949 6.870314 3.830026 9.234414l14.133451 14.161071c5.847337 5.849383 7.449319 16.568136 3.524156 23.834342l-10.344344 25.148867c-2.440823 7.888176-11.184208 14.337023-19.449862 14.337023l-19.969534-0.022505c-3.351273 0-6.685155 1.278721-9.235437 3.833095-2.554374 2.553351-3.831049 5.895417-3.831049 9.240551l0 33.920895c0 3.343089 1.276675 6.686178 3.831049 9.241574 2.550282 2.544144 5.884164 3.819796 9.235437 3.819796l19.969534 0c8.265654 0.018414 16.991648 6.467261 19.430426 14.334977l10.36378 25.129431c3.888336 7.287688 2.30579 18.044292-3.524156 23.852755l-14.173347 14.136519c-2.3641 2.363077-3.830026 5.629443-3.830026 9.248735 0 3.600879 1.466949 6.876452 3.830026 9.240551l24.025638 23.985742c2.358985 2.3641 5.61819 3.819796 9.218046 3.819796 3.601902 0 6.880543-1.456719 9.242597-3.819796l14.172324-14.14368c5.813578-5.823808 16.51801-7.421698 23.776032-3.478122l25.18774 10.33616c7.888176 2.449007 14.305311 11.192392 14.305311 19.457023l0 19.910202c0 3.333882 1.276675 6.686178 3.831049 9.23646 2.553351 2.53596 5.888256 3.812635 9.239528 3.812635l33.911688 0c3.351273 0 6.686178-1.276675 9.240551-3.812635 2.553351-2.550282 3.830026-5.902577 3.830026-9.23646l0-19.910202c0-8.263608 6.474422-17.006993 14.32577-19.457023l25.14989-10.33616c7.275413-3.942553 18.01974-2.341594 23.870146 3.478122l14.079233 14.133451c2.361031 2.373307 5.620236 3.849463 9.241574 3.849463 3.599856 0.009207 6.878498-1.447512 9.23646-3.820819l24.025638-24.004156c2.380468-2.373307 3.829003-5.640695 3.829003-9.247712 0-3.612132-1.465926-6.878498-3.829003-9.241574l-14.154933-14.136519c-5.813578-5.812555-7.410446-16.565067-3.525179-23.852755l10.343321-25.129431c2.457191-7.866693 11.242517-14.316563 19.472368-14.316563l19.947029 0c3.334905 0 6.66981-1.277698 9.220092-3.831049 2.553351-2.554374 3.830026-5.89644 3.830026-9.238505l0-33.931125c0-3.345135-1.276675-6.687201-3.830026-9.240551C943.291205 245.73954 939.9563 244.460819 936.621395 244.460819L936.621395 244.460819zM754.637874 349.483732c-41.453075 0-75.043548-33.567968-75.043548-75.014905 0-41.438753 33.590474-75.024112 75.043548-75.024112 41.439776 0 75.027181 33.585359 75.027181 75.024112C829.665055 315.915764 796.07765 349.483732 754.637874 349.483732L754.637874 349.483732zM1067.859117 150.88195" p-id="2038" fill="#e6e6e6"></path></svg>